<?xml version="1.0" encoding="UTF-8" standalone="no"?>
<!DOCTYPE svg PUBLIC "-//W3C//DTD SVG 1.1//EN"
 "http://www.w3.org/Graphics/SVG/1.1/DTD/svg11.dtd">
<!-- Generated by graphviz version 10.0.1 (20240210.2158)
 -->
<!-- Title: dependency&#45;cruiser output Pages: 1 -->
<svg width="319pt" height="199pt"
 viewBox="0.00 0.00 319.00 198.62" xmlns="http://www.w3.org/2000/svg" xmlns:xlink="http://www.w3.org/1999/xlink">
<g id="graph0" class="graph" transform="scale(1 1) rotate(0) translate(4 194.62)">
<title>dependency&#45;cruiser output</title>
<polygon fill="white" stroke="none" points="-4,4 -4,-194.62 315,-194.62 315,4 -4,4"/>
<g id="clust1" class="cluster">
<title>cluster_apps</title>
<path fill="#ffffff" stroke="black" stroke-width="2" d="M20,-127.62C20,-127.62 66,-127.62 66,-127.62 72,-127.62 78,-133.62 78,-139.62 78,-139.62 78,-170.62 78,-170.62 78,-176.62 72,-182.62 66,-182.62 66,-182.62 20,-182.62 20,-182.62 14,-182.62 8,-176.62 8,-170.62 8,-170.62 8,-139.62 8,-139.62 8,-133.62 14,-127.62 20,-127.62"/>
<text text-anchor="middle" x="43" y="-170.07" font-family="Helvetica,sans-Serif" font-weight="bold" font-size="9.00">apps</text>
</g>
<g id="clust2" class="cluster">
<title>cluster_libs</title>
<path fill="#ffffff" stroke="black" stroke-width="2" d="M98,-58.62C98,-58.62 291,-58.62 291,-58.62 297,-58.62 303,-64.62 303,-70.62 303,-70.62 303,-115.62 303,-115.62 303,-121.62 297,-127.62 291,-127.62 291,-127.62 98,-127.62 98,-127.62 92,-127.62 86,-121.62 86,-115.62 86,-115.62 86,-70.62 86,-70.62 86,-64.62 92,-58.62 98,-58.62"/>
<text text-anchor="middle" x="194.5" y="-115.08" font-family="Helvetica,sans-Serif" font-weight="bold" font-size="9.00">libs</text>
</g>
<!-- apps/servers -->
<g id="node1" class="node">
<title>apps/servers</title>
<g id="a_node1"><a xlink:href="apps/servers" xlink:title="no&#45;orphans">
<polygon fill="#ffffcc" stroke="orange" points="70,-155.25 18.14,-155.25 16,-153.11 16,-136 67.86,-136 70,-138.14 70,-155.25"/>
<polyline fill="none" stroke="orange" points="67.86,-153.11 16,-153.11"/>
<polyline fill="none" stroke="orange" points="67.86,-153.11 67.86,-136"/>
<polyline fill="none" stroke="orange" points="67.86,-153.11 70,-155.25"/>
<text text-anchor="start" x="27.62" y="-142.7" font-family="Helvetica,sans-Serif" font-size="9.00" fill="orange">servers</text>
</a>
</g>
</g>
<!-- child_process -->
<g id="node2" class="node">
<title>child_process</title>
<g id="a_node2"><a xlink:href="https://nodejs.org/api/child_process.html" xlink:title="child_process">
<path fill="#ffffcc" stroke="grey" d="M154.58,-186.25C154.58,-186.25 92.92,-186.25 92.92,-186.25 89.71,-186.25 86.5,-183.04 86.5,-179.83 86.5,-179.83 86.5,-173.42 86.5,-173.42 86.5,-170.21 89.71,-167 92.92,-167 92.92,-167 154.58,-167 154.58,-167 157.79,-167 161,-170.21 161,-173.42 161,-173.42 161,-179.83 161,-179.83 161,-183.04 157.79,-186.25 154.58,-186.25"/>
<text text-anchor="middle" x="123.75" y="-173.7" font-family="Helvetica,sans-Serif" font-size="9.00" fill="grey">child_process</text>
</a>
</g>
</g>
<!-- apps/servers&#45;&gt;child_process -->
<g id="edge1" class="edge">
<title>apps/servers&#45;&gt;child_process</title>
<path fill="none" stroke="#000000" stroke-dasharray="5,2" stroke-opacity="0.200000" d="M69.35,-155.6C76.03,-158.23 83.32,-161.1 90.32,-163.86"/>
<polygon fill="#000000" fill-opacity="0.200000" stroke="#000000" stroke-opacity="0.200000" points="89.42,-165.76 95.77,-166 90.95,-161.85 89.42,-165.76"/>
</g>
<!-- path -->
<g id="node3" class="node">
<title>path</title>
<g id="a_node3"><a xlink:href="https://nodejs.org/api/path.html" xlink:title="path">
<path fill="#ffffcc" stroke="grey" d="M144.33,-155.25C144.33,-155.25 103.17,-155.25 103.17,-155.25 99.96,-155.25 96.75,-152.04 96.75,-148.83 96.75,-148.83 96.75,-142.42 96.75,-142.42 96.75,-139.21 99.96,-136 103.17,-136 103.17,-136 144.33,-136 144.33,-136 147.54,-136 150.75,-139.21 150.75,-142.42 150.75,-142.42 150.75,-148.83 150.75,-148.83 150.75,-152.04 147.54,-155.25 144.33,-155.25"/>
<text text-anchor="middle" x="123.75" y="-142.7" font-family="Helvetica,sans-Serif" font-size="9.00" fill="grey">path</text>
</a>
</g>
</g>
<!-- apps/servers&#45;&gt;path -->
<g id="edge2" class="edge">
<title>apps/servers&#45;&gt;path</title>
<path fill="none" stroke="#000000" stroke-dasharray="5,2" stroke-opacity="0.200000" d="M70.22,-145.62C76.27,-145.62 82.78,-145.62 89.09,-145.62"/>
<polygon fill="#000000" fill-opacity="0.200000" stroke="#000000" stroke-opacity="0.200000" points="88.86,-147.73 94.86,-145.63 88.86,-143.53 88.86,-147.73"/>
</g>
<!-- libs/framework -->
<g id="node4" class="node">
<title>libs/framework</title>
<g id="a_node4"><a xlink:href="libs/framework" xlink:title="framework">
<polygon fill="#ffffcc" stroke="black" points="153.5,-100.25 96.14,-100.25 94,-98.11 94,-81 151.36,-81 153.5,-83.14 153.5,-100.25"/>
<polyline fill="none" stroke="black" points="151.36,-98.11 94,-98.11"/>
<polyline fill="none" stroke="black" points="151.36,-98.11 151.36,-81"/>
<polyline fill="none" stroke="black" points="151.36,-98.11 153.5,-100.25"/>
<text text-anchor="start" x="102" y="-87.7" font-family="Helvetica,sans-Serif" font-size="9.00">framework</text>
</a>
</g>
</g>
<!-- apps/servers&#45;&gt;libs/framework -->
<g id="edge3" class="edge">
<title>apps/servers&#45;&gt;libs/framework</title>
<path fill="none" stroke="#000000" stroke-width="2" stroke-opacity="0.200000" d="M58.44,-135.54C70.43,-127.16 87.66,-115.13 101.27,-105.63"/>
<polygon fill="#000000" fill-opacity="0.200000" stroke="#000000" stroke-width="2" stroke-opacity="0.200000" points="102.2,-107.54 105.92,-102.38 99.79,-104.1 102.2,-107.54"/>
</g>
<!-- libs/core -->
<g id="node6" class="node">
<title>libs/core</title>
<g id="a_node6"><a xlink:href="libs/core" xlink:title="core">
<polygon fill="#ffffcc" stroke="black" points="295,-86.25 243.14,-86.25 241,-84.11 241,-67 292.86,-67 295,-69.14 295,-86.25"/>
<polyline fill="none" stroke="black" points="292.86,-84.11 241,-84.11"/>
<polyline fill="none" stroke="black" points="292.86,-84.11 292.86,-67"/>
<polyline fill="none" stroke="black" points="292.86,-84.11 295,-86.25"/>
<text text-anchor="start" x="259" y="-73.7" font-family="Helvetica,sans-Serif" font-size="9.00">core</text>
</a>
</g>
</g>
<!-- libs/framework&#45;&gt;libs/core -->
<g id="edge4" class="edge">
<title>libs/framework&#45;&gt;libs/core</title>
<path fill="none" stroke="#000000" stroke-width="2" stroke-opacity="0.200000" d="M153.97,-94.48C174.8,-96.43 203.37,-97.48 228,-92.62 231.46,-91.94 234.99,-90.95 238.45,-89.79"/>
<polygon fill="#000000" fill-opacity="0.200000" stroke="#000000" stroke-width="2" stroke-opacity="0.200000" points="239.11,-91.79 243.99,-87.71 237.63,-87.86 239.11,-91.79"/>
</g>
<!-- libs/gateway -->
<g id="node7" class="node">
<title>libs/gateway</title>
<g id="a_node7"><a xlink:href="libs/gateway" xlink:title="gateway">
<polygon fill="#ffffcc" stroke="black" points="228,-86.25 176.14,-86.25 174,-84.11 174,-67 225.86,-67 228,-69.14 228,-86.25"/>
<polyline fill="none" stroke="black" points="225.86,-84.11 174,-84.11"/>
<polyline fill="none" stroke="black" points="225.86,-84.11 225.86,-67"/>
<polyline fill="none" stroke="black" points="225.86,-84.11 228,-86.25"/>
<text text-anchor="start" x="184.12" y="-73.7" font-family="Helvetica,sans-Serif" font-size="9.00">gateway</text>
</a>
</g>
</g>
<!-- libs/framework&#45;&gt;libs/gateway -->
<g id="edge5" class="edge">
<title>libs/framework&#45;&gt;libs/gateway</title>
<path fill="none" stroke="#000000" stroke-width="2" stroke-opacity="0.200000" d="M153.63,-85.25C157.36,-84.56 161.21,-83.84 165.03,-83.13"/>
<polygon fill="#000000" fill-opacity="0.200000" stroke="#000000" stroke-width="2" stroke-opacity="0.200000" points="165.3,-85.22 170.81,-82.06 164.53,-81.09 165.3,-85.22"/>
</g>
<!-- crypto -->
<g id="node5" class="node">
<title>crypto</title>
<g id="a_node5"><a xlink:href="https://nodejs.org/api/crypto.html" xlink:title="crypto">
<path fill="#ffffcc" stroke="grey" d="M288.58,-50.25C288.58,-50.25 247.42,-50.25 247.42,-50.25 244.21,-50.25 241,-47.04 241,-43.83 241,-43.83 241,-37.42 241,-37.42 241,-34.21 244.21,-31 247.42,-31 247.42,-31 288.58,-31 288.58,-31 291.79,-31 295,-34.21 295,-37.42 295,-37.42 295,-43.83 295,-43.83 295,-47.04 291.79,-50.25 288.58,-50.25"/>
<text text-anchor="middle" x="268" y="-37.7" font-family="Helvetica,sans-Serif" font-size="9.00" fill="grey">crypto</text>
</a>
</g>
</g>
<!-- libs/gateway&#45;&gt;crypto -->
<g id="edge8" class="edge">
<title>libs/gateway&#45;&gt;crypto</title>
<path fill="none" stroke="#000000" stroke-dasharray="5,2" stroke-opacity="0.200000" d="M220.11,-66.6C227.15,-62.7 235.32,-58.17 242.85,-54"/>
<polygon fill="#000000" fill-opacity="0.200000" stroke="#000000" stroke-opacity="0.200000" points="243.44,-56.08 247.67,-51.33 241.4,-52.4 243.44,-56.08"/>
</g>
<!-- libs/gateway&#45;&gt;libs/core -->
<g id="edge6" class="edge">
<title>libs/gateway&#45;&gt;libs/core</title>
<path fill="none" stroke="#000000" stroke-width="2" stroke-opacity="0.200000" d="M228.44,-76.62C229.58,-76.62 230.74,-76.62 231.9,-76.62"/>
<polygon fill="#000000" fill-opacity="0.200000" stroke="#000000" stroke-width="2" stroke-opacity="0.200000" points="231.77,-78.73 237.77,-76.63 231.77,-74.53 231.77,-78.73"/>
</g>
<!-- modules -->
<g id="node8" class="node">
<title>modules</title>
<g id="a_node8"><a xlink:href="modules" xlink:title="modules">
<polygon fill="#ffffcc" stroke="black" points="295,-19.25 243.14,-19.25 241,-17.11 241,0 292.86,0 295,-2.14 295,-19.25"/>
<polyline fill="none" stroke="black" points="292.86,-17.11 241,-17.11"/>
<polyline fill="none" stroke="black" points="292.86,-17.11 292.86,0"/>
<polyline fill="none" stroke="black" points="292.86,-17.11 295,-19.25"/>
<text text-anchor="middle" x="268" y="-6.7" font-family="Helvetica,sans-Serif" font-size="9.00">modules</text>
</a>
</g>
</g>
<!-- libs/gateway&#45;&gt;modules -->
<g id="edge7" class="edge">
<title>libs/gateway&#45;&gt;modules</title>
<path fill="none" stroke="#000000" stroke-width="2" stroke-opacity="0.200000" d="M207.63,-66.87C213.7,-56.89 224.18,-41.15 241.11,-25.39"/>
<polygon fill="#000000" fill-opacity="0.200000" stroke="#000000" stroke-width="2" stroke-opacity="0.200000" points="242.29,-27.16 245.38,-21.6 239.5,-24.01 242.29,-27.16"/>
</g>
<!-- modules&#45;&gt;libs/core -->
<g id="edge9" class="edge">
<title>modules&#45;&gt;libs/core</title>
<path fill="none" stroke="#000000" stroke-width="2" stroke-opacity="0.200000" d="M244.03,-19.56C240,-22.46 236.48,-26.1 234.5,-30.62 230.93,-38.77 230.93,-42.48 234.5,-50.62 236.22,-54.55 238.89,-58.03 241.98,-61.07"/>
<polygon fill="#000000" fill-opacity="0.200000" stroke="#000000" stroke-width="2" stroke-opacity="0.200000" points="240.48,-62.56 246.44,-64.76 243.16,-59.32 240.48,-62.56"/>
</g>
</g>
</svg>
